<svg viewBox="0 0 285.81 42.29" xmlns="http://www.w3.org/2000/svg"><g fill="#fff"><path d="m73.9 17.65v6.78c0 5.57-3.34 9.57-10.13 9.57h-8c-.36 0-.5-.18-.5-.49v-24.79c0-.32.14-.49.5-.49h8c6.79 0 10.13 3.97 10.13 9.42zm-14.1-5.24v17.37h3.9c4 0 5.7-2 5.7-5.45v-6.47c0-3.44-1.69-5.45-5.7-5.45z"/><path d="m82.27 7.81v3.34a.56.56 0 0 1 -.63.63h-3.06c-.46 0-.67-.21-.67-.63v-3.34a.59.59 0 0 1 .67-.64h3.06a.58.58 0 0 1 .63.64zm0 7.24v18.42a.45.45 0 0 1 -.49.49h-3.34c-.36 0-.53-.18-.53-.49v-18.42c0-.32.17-.49.53-.49h3.34a.44.44 0 0 1 .49.49z"/><path d="m101.18 18.74a.47.47 0 0 1 -.35.67l-2.57.91c-.38.11-.56 0-.67-.35a3.53 3.53 0 0 0 -3.72-2.36c-2 0-3.13.81-3.13 2.08s.81 1.69 4.53 2.74c4.4 1.23 6.16 2.95 6.16 6 0 3.59-3 5.94-7.49 5.94-4.08 0-7-1.69-8-4.57-.14-.38 0-.6.43-.77l2.28-1.13c.42-.14.63-.07.77.43.53 1.61 2.18 2.6 4.33 2.6s3.44-.85 3.44-2.22-1-1.93-4.71-2.95c-4.22-1.2-6-2.85-6-5.8 0-3.48 2.84-5.8 7.17-5.8 3.87.01 6.62 1.7 7.53 4.58z"/><path d="m110.71 10.27v4.43h3.86c.29 0 .46.17.46.52v2.53c0 .36-.17.5-.46.5h-3.86v9.75c0 1.41.77 2.11 2.35 2.11h1.48a.43.43 0 0 1 .49.49v2.85a.43.43 0 0 1 -.49.49h-2.18c-3.94 0-5.91-2.11-5.91-5.34v-10.35h-2.45c-.32 0-.49-.14-.49-.5v-2.53c0-.35.17-.52.49-.52h2.46v-4.43a.46.46 0 0 1 .49-.49h3.24a.44.44 0 0 1 .52.49z"/><path d="m129.38 14.84v3.06c0 .38-.15.52-.57.52h-.49a5.07 5.07 0 0 0 -5.24 3.58v11.5a.42.42 0 0 1 -.42.46h-3.48a.44.44 0 0 1 -.46-.46v-18.5a.44.44 0 0 1 .5-.45h3.19a.45.45 0 0 1 .5.49v2.74a6.39 6.39 0 0 1 5.8-3.48c.56.01.67.12.67.54z"/><path d="m137.28 7.81v3.34a.56.56 0 0 1 -.63.63h-3.06c-.45 0-.66-.21-.66-.63v-3.34a.59.59 0 0 1 .66-.64h3.06a.58.58 0 0 1 .63.64zm0 7.24v18.42a.44.44 0 0 1 -.49.49h-3.34a.45.45 0 0 1 -.52-.49v-18.42c0-.32.17-.49.52-.49h3.34a.44.44 0 0 1 .49.49z"/><path d="m156.76 19.72a.51.51 0 0 1 -.42.64l-2.67.73c-.53.14-.64.07-.78-.31-.38-1.16-.95-2.78-3.48-2.78s-3.65 1.58-3.65 4.18v4.26c0 2.6 1.26 4.07 3.65 4.07a3.3 3.3 0 0 0 3.59-2.63c.14-.46.32-.53.74-.35l2.7.95c.43.14.43.38.36.73-.6 2.75-3.2 5.14-7.67 5.14-4.88 0-7.73-3.2-7.73-7.7v-4.65c0-4.5 2.85-7.8 7.73-7.8 4.19-.03 7.03 2.04 7.63 5.52z"/><path d="m165.52 10.27v4.43h3.86c.28 0 .46.17.46.52v2.53c0 .36-.18.5-.46.5h-3.86v9.75c0 1.41.77 2.11 2.35 2.11h1.48a.43.43 0 0 1 .49.49v2.85a.43.43 0 0 1 -.49.49h-2.18c-3.94 0-5.91-2.11-5.91-5.34v-10.35h-2.43c-.31 0-.49-.14-.49-.5v-2.53a.45.45 0 0 1 .49-.52h2.47v-4.43a.46.46 0 0 1 .49-.49h3.21a.45.45 0 0 1 .52.49z"/><path d="m191.39 14.73v.46a5.44 5.44 0 0 1 -3.62 5.38c2.57.45 4.4 2.67 4.4 5.83v.53c0 4.29-2.68 7-7.91 7h-9.32a.43.43 0 0 1 -.49-.49v-24.72a.43.43 0 0 1 .49-.49h9.14c4.85 0 7.31 2.53 7.31 6.5zm-12.39-2.56v6.64h4.46c2.64 0 3.59-1.51 3.59-3.16v-.32c0-1.79-.95-3.16-3.59-3.16zm0 10.61v7.22h4.71c2.35 0 4-1 4-3.34v-.49c0-2.25-1.45-3.41-4-3.41z"/><path d="m195.68 27.74v-12.69a.47.47 0 0 1 .53-.49h3.34a.43.43 0 0 1 .49.49v11.95c0 2.07 1 3.33 3 3.33a4.58 4.58 0 0 0 4.1-3.33v-12c0-.32.14-.49.46-.49h3.4c.36 0 .53.17.53.49v18.5a.45.45 0 0 1 -.53.5h-3.27a.43.43 0 0 1 -.49-.46v-2.39a7.13 7.13 0 0 1 -5.87 3.2c-3.65 0-5.69-2.67-5.69-6.61z"/><path d="m221.09 7.81v3.34a.56.56 0 0 1 -.63.63h-3.06c-.46 0-.67-.21-.67-.63v-3.34a.59.59 0 0 1 .67-.64h3.06a.58.58 0 0 1 .63.64zm0 7.24v18.42a.44.44 0 0 1 -.49.49h-3.34c-.35 0-.53-.18-.53-.49v-18.42c0-.32.18-.49.53-.49h3.34a.44.44 0 0 1 .49.49z"/><path d="m230.65 7.63v25.84a.44.44 0 0 1 -.49.49h-3.34c-.35 0-.53-.18-.53-.49v-25.84c0-.32.18-.49.53-.49h3.34a.44.44 0 0 1 .49.49z"/><path d="m234.77 26.93v-5.2c0-4.47 2.63-7.53 6.61-7.53a6.21 6.21 0 0 1 5.51 2.85v-9.42a.42.42 0 0 1 .46-.46h3.45a.44.44 0 0 1 .45.46v25.87a.43.43 0 0 1 -.49.46h-3.27a.43.43 0 0 1 -.46-.46v-2a6.29 6.29 0 0 1 -5.48 2.82c-4.18.03-6.78-2.93-6.78-7.39zm12.12-.63v-3.94a4 4 0 0 0 -4-4.32c-2.46 0-3.76 1.61-3.76 4.32v3.94c0 2.74 1.3 4.21 3.76 4.21a3.87 3.87 0 0 0 4-4.21z"/><path d="m259.41 25.59v1.13c0 2.49 1.3 4 4.08 4.08 2.6 0 3.41-1 4.08-2.32.28-.46.45-.53.91-.32l2.22 1.13c.49.24.52.52.31.94-1.16 2.57-3.87 4.12-7.56 4.12-5.38 0-8.22-3.2-8.22-7.7v-4.78c0-4.4 2.74-7.7 8.15-7.7 5.2 0 7.84 3.3 7.84 7.63v2.95c0 .56-.21.84-.88.84zm0-3.9v1h7.8v-1c0-2.39-1.33-4-3.9-4s-3.9 1.61-3.9 4z"/><path d="m285.81 14.84v3.06c0 .38-.14.52-.56.52h-.49a5.07 5.07 0 0 0 -5.24 3.58v11.5a.42.42 0 0 1 -.42.46h-3.48a.44.44 0 0 1 -.46-.46v-18.5a.43.43 0 0 1 .49-.45h3.2a.44.44 0 0 1 .49.49v2.74a6.38 6.38 0 0 1 5.8-3.48c.57.01.67.12.67.54z"/><path d="m13.32 22.45a.72.72 0 0 1 0-1l8.11-8.11a.72.72 0 0 1 1 0l4.14 4.14a.72.72 0 0 0 1 0l5.14-5.14a.72.72 0 0 0 0-1l-3.91-3.98-1-1-6.14-6.15a.72.72 0 0 0 -1 0l-6.15 6.13-1 1-6.15 6.15-1 1-6.15 6.15a.71.71 0 0 0 0 1l6.13 6.14 1 1 3.94 3.95a.72.72 0 0 0 1 0l5.14-5.14a.72.72 0 0 0 0-1z"/><path d="m36 14.51-1-1a.72.72 0 0 0 -1 0l-6.33 6.33a.72.72 0 0 1 -1 0l-4.22-4.14a.72.72 0 0 0 -1 0l-5.75 5.73a.72.72 0 0 0 0 1l4.14 4.14a.72.72 0 0 1 0 1l-6.33 6.33a.72.72 0 0 0 0 1l1 1 6.13 6.13a.72.72 0 0 0 1 0l6.15-6.03 1-1 6.13-6.13 1-1 6.13-6.14a.71.71 0 0 0 0-1z"/></g></svg>