<svg width="14" height="18" viewBox="0 0 14 18" fill="none" xmlns="http://www.w3.org/2000/svg">
<path fill-rule="evenodd" clip-rule="evenodd" d="M0 2.5C0 1.11929 1.11929 0 2.5 0H11.5C12.8807 0 14 1.11929 14 2.5V17C14 17.5523 13.5523 18 13 18H12V3C12 2.44772 11.5523 2 11 2H3C2.44772 2 2 2.44772 2 3V17C2 18 1 18 1 18C0.447716 18 0 17.5523 0 17V2.5ZM5 4.99994L9.68377 3.43868C10.3313 3.22284 11 3.70481 11 4.38737V16.6125C11 17.2951 10.3313 17.777 9.68377 17.5612L5 15.9999V4.99994ZM6 10C6 9.44772 6.44772 9 7 9C7.55228 9 8 9.44772 8 10C8 10.5523 7.55228 11 7 11C6.44772 11 6 10.5523 6 10Z" fill="#4B76C0"/>
</svg>
